<?xml version="1.0" encoding="utf-8"?>
<!-- Generator: Adobe Illustrator 19.2.1, SVG Export Plug-In . SVG Version: 6.00 Build 0)  -->
<svg version="1.1" id="L_x27_Yonne_Republicaine" xmlns="http://www.w3.org/2000/svg" xmlns:xlink="http://www.w3.org/1999/xlink"
	 x="0px" y="0px" viewBox="0 0 368.2 108.9" style="enable-background:new 0 0 368.2 108.9;" xml:space="preserve">
<style type="text/css">
	.st0{fill:#BD2E18;}
</style>
<g>
	<g>
		<path class="st0" d="M0,80c2.2-0.3,5.4-0.6,8.9-0.6c4.4,0,7.5,0.6,9.6,2.3c1.8,1.4,2.7,3.4,2.7,6c0,3.7-2.7,6.2-5.2,7.1v0.1
			c2.1,0.8,3.2,2.7,4,5.4c0.9,3.2,1.8,7,2.4,8.1h-6.9c-0.5-0.9-1.2-3.2-2.1-6.7c-0.8-3.6-2.1-4.6-4.8-4.6h-2v11.3H0V80z M6.6,92.4
			h2.6c3.3,0,5.3-1.6,5.3-4.1c0-2.6-1.8-4-4.9-4c-1.6,0-2.5,0.1-3,0.2V92.4z"/>
		<path class="st0" d="M44.1,96.2H33.2v6.8h12.2v5.3H26.5V79.6h18.3v5.3H33.2v6h10.9V96.2z M43.3,72.8l-5.4,5.3h-5.4l3.7-5.3H43.3z"
			/>
		<path class="st0" d="M49.7,80c2.1-0.3,5-0.6,9-0.6c4.1,0,7.1,0.8,9.1,2.3c1.9,1.5,3.2,3.8,3.2,6.7c0,2.8-1,5.2-2.7,6.8
			c-2.3,2.1-5.7,3-9.6,3c-0.9,0-1.7,0-2.3-0.1v10.3h-6.6V80z M56.4,93.1c0.6,0.1,1.3,0.2,2.2,0.2c3.6,0,5.8-1.8,5.8-4.7
			c0-2.6-1.9-4.2-5.2-4.2c-1.4,0-2.3,0.1-2.8,0.3V93.1z"/>
		<path class="st0" d="M81.4,79.6v16.6c0,5,1.9,7.5,5.4,7.5c3.5,0,5.4-2.4,5.4-7.5V79.6h6.7v16.1c0,8.9-4.6,13.1-12.3,13.1
			c-7.5,0-11.9-4-11.9-13.2V79.6H81.4z"/>
		<path class="st0" d="M103.5,80c1.8-0.3,5.3-0.6,8.7-0.6c4.1,0,6.6,0.4,8.7,1.6c2.1,1.1,3.6,3,3.6,5.6c0,2.6-1.5,5-4.9,6.2v0.1
			c3.4,0.9,5.9,3.4,5.9,7.1c0,2.6-1.2,4.7-3.1,6.1c-2.2,1.7-5.8,2.6-11.6,2.6c-3.3,0-5.8-0.2-7.2-0.4V80z M110.1,91h2.2
			c3.5,0,5.4-1.4,5.4-3.5c0-2.2-1.7-3.3-4.7-3.3c-1.5,0-2.3,0.1-2.9,0.2V91z M110.1,103.8c0.7,0.1,1.4,0.1,2.6,0.1
			c3,0,5.7-1.2,5.7-4.1c0-2.9-2.7-4.1-6-4.1h-2.3V103.8z"/>
		<path class="st0" d="M129.5,79.6h6.7v23.3H148v5.5h-18.5V79.6z"/>
		<path class="st0" d="M158.1,79.6v28.8h-6.7V79.6H158.1z"/>
		<path class="st0" d="M185.4,107.6c-1.2,0.6-4,1.3-7.6,1.3c-10.2,0-15.5-6.2-15.5-14.4c0-9.8,7.2-15.3,16.2-15.3
			c3.5,0,6.1,0.7,7.3,1.3l-1.4,5.2c-1.4-0.6-3.3-1.1-5.6-1.1c-5.3,0-9.4,3.1-9.4,9.5c0,5.8,3.5,9.4,9.5,9.4c2,0,4.3-0.4,5.6-0.9
			L185.4,107.6z"/>
		<path class="st0" d="M197.7,101l-2.1,7.4h-6.9l9-28.8h8.8l9.2,28.8h-7.2l-2.3-7.4H197.7z M205.2,96.1l-1.8-6.1
			c-0.5-1.7-1.1-3.8-1.5-5.6h-0.1c-0.4,1.7-0.9,3.9-1.4,5.6l-1.8,6.1H205.2z"/>
		<path class="st0" d="M226.2,79.6v28.8h-6.7V79.6H226.2z"/>
		<path class="st0" d="M230.9,108.4V79.6h7.8l6.2,10.5c1.8,3,3.5,6.6,4.8,9.9h0.1c-0.4-3.8-0.6-7.7-0.6-12v-8.4h6.2v28.8h-7
			l-6.3-11.1c-1.8-3.1-3.7-6.8-5.1-10.2l-0.1,0c0.2,3.8,0.3,7.9,0.3,12.6v8.7H230.9z"/>
		<path class="st0" d="M277.8,96.2h-10.9v6.8h12.2v5.3h-18.9V79.6h18.3v5.3h-11.6v6h10.9V96.2z"/>
	</g>
	<g>
		<g>
			<path class="st0" d="M0.1,1.8h15.6v54h27.4v12.7h-43V1.8z"/>
			<path class="st0" d="M54.3,0C51.1,9.7,46.7,19.4,42,26.8l-9.4,0.8c3.2-8.4,5.7-18,7.2-26.6L54.3,0z"/>
			<path class="st0" d="M82.6,68.5V41.2L60.9,1.8h17.8l7.1,16c2.1,4.8,3.6,8.4,5.3,12.8h0.2c1.5-4.2,3.2-8,5.2-12.8l7-16h17.5
				L98.2,40.7v27.8H82.6z"/>
			<path class="st0" d="M183.8,34.4c0,21.9-13.7,35.1-33.8,35.1c-20.4,0-32.4-14.9-32.4-33.9c0-20,13.2-34.9,33.5-34.9
				C172.3,0.7,183.8,16,183.8,34.4z M134,35.3c0,13.1,6.3,22.3,16.8,22.3c10.5,0,16.6-9.7,16.6-22.7c0-12-5.9-22.3-16.7-22.3
				C140.2,12.7,134,22.4,134,35.3z"/>
			<path class="st0" d="M191.5,68.5V1.8h18.2l14.3,24.4c4.1,7,8.2,15.3,11.2,22.9h0.3c-1-8.8-1.3-17.8-1.3-27.9V1.8h14.3v66.7h-16.4
				l-14.7-25.7c-4.1-7.1-8.6-15.7-12-23.6l-0.3,0.1c0.4,8.8,0.6,18.2,0.6,29.1v20.1H191.5z"/>
			<path class="st0" d="M258.1,68.5V1.8h18.2l14.3,24.4c4.1,7,8.2,15.3,11.2,22.9h0.3c-1-8.8-1.3-17.8-1.3-27.9V1.8h14.3v66.7h-16.4
				l-14.7-25.7c-4.1-7.1-8.6-15.7-12-23.6l-0.3,0.1c0.4,8.8,0.6,18.2,0.6,29.1v20.1H258.1z"/>
			<path class="st0" d="M365.2,40.3h-25.3v15.8h28.3v12.4h-43.9V1.8h42.5v12.4h-26.9V28h25.3V40.3z"/>
		</g>
	</g>
</g>
</svg>
